<!DOCTYPE svg PUBLIC "-//W3C//DTD SVG 1.1//EN" "http://www.w3.org/Graphics/SVG/1.1/DTD/svg11.dtd">
<!-- Uploaded to: SVG Repo, www.svgrepo.com, Transformed by: SVG Repo Mixer Tools -->
<svg fill="#373a47" height="800px" width="800px" version="1.1" id="Layer_1" xmlns="http://www.w3.org/2000/svg" xmlns:xlink="http://www.w3.org/1999/xlink" viewBox="-51.2 -51.2 614.40 614.40" xml:space="preserve" stroke="#373a47" transform="rotate(180)matrix(1, 0, 0, 1, 0, 0)" stroke-width="15.36">
<g id="SVGRepo_bgCarrier" stroke-width="0" transform="translate(53.75999999999999,53.75999999999999), scale(0.79)">
<rect x="-51.2" y="-51.2" width="614.40" height="614.40" rx="307.2" fill="#298dd4" strokewidth="0"/>
</g>
<g id="SVGRepo_tracerCarrier" stroke-linecap="round" stroke-linejoin="round"/>
<g id="SVGRepo_iconCarrier"> <g> <g> <path d="M256,0C114.837,0,0,114.837,0,256s114.837,256,256,256s256-114.837,256-256S397.163,0,256,0z M192,106.667h128 c11.797,0,21.333,9.557,21.333,21.333s-9.536,21.333-21.333,21.333H192c-11.797,0-21.333-9.557-21.333-21.333 S180.203,106.667,192,106.667z M320,405.333H192c-11.797,0-21.333-9.557-21.333-21.333s9.536-21.333,21.333-21.333h128 c11.797,0,21.333,9.557,21.333,21.333S331.797,405.333,320,405.333z M384,320H128c-11.797,0-21.333-9.557-21.333-21.333 s9.536-21.333,21.333-21.333h256c11.797,0,21.333,9.557,21.333,21.333S395.797,320,384,320z M384,234.667H128 c-11.797,0-21.333-9.557-21.333-21.333S116.203,192,128,192h256c11.797,0,21.333,9.557,21.333,21.333S395.797,234.667,384,234.667 z"/> </g> </g> </g>
</svg>