<svg xmlns="http://www.w3.org/2000/svg" xmlns:xlink="http://www.w3.org/1999/xlink" width="500" zoomAndPan="magnify" viewBox="0 0 375 374.999991" height="500" preserveAspectRatio="xMidYMid meet" version="1.0"><defs><clipPath id="0155416387"><path d="M 124 118.125 L 251 118.125 L 251 157 L 124 157 Z M 124 118.125 " clip-rule="nonzero"/></clipPath><clipPath id="ed0a9878eb"><path d="M 124 223 L 251 223 L 251 256.875 L 124 256.875 Z M 124 223 " clip-rule="nonzero"/></clipPath><clipPath id="4a444b630d"><path d="M 112.5 165 L 262.5 165 L 262.5 182 L 112.5 182 Z M 112.5 165 " clip-rule="nonzero"/></clipPath><clipPath id="1d0e7c78b9"><path d="M 112.5 200 L 262.5 200 L 262.5 218 L 112.5 218 Z M 112.5 200 " clip-rule="nonzero"/></clipPath></defs><g clip-path="url(#0155416387)"><path fill="#bd9b6b" d="M 250.65625 156.785156 C 244.347656 130.339844 218.472656 118.109375 187.496094 118.109375 C 156.519531 118.109375 130.644531 130.339844 124.335938 156.785156 L 250.65625 156.785156 " fill-opacity="1" fill-rule="nonzero"/></g><g clip-path="url(#ed0a9878eb)"><path fill="#bd9b6b" d="M 124.335938 223.890625 C 130.644531 250.335938 156.519531 256.878906 187.496094 256.878906 C 218.472656 256.878906 244.347656 250.335938 250.65625 223.890625 L 124.335938 223.890625 " fill-opacity="1" fill-rule="nonzero"/></g><g clip-path="url(#4a444b630d)"><path fill="#298dd4" d="M 254.242188 181.640625 L 120.75 181.640625 C 116.207031 181.640625 112.492188 177.921875 112.492188 173.382812 C 112.492188 168.839844 116.207031 165.125 120.75 165.125 L 254.242188 165.125 C 258.78125 165.125 262.5 168.839844 262.5 173.382812 C 262.5 177.921875 258.78125 181.640625 254.242188 181.640625 " fill-opacity="1" fill-rule="nonzero"/></g><g clip-path="url(#1d0e7c78b9)"><path fill="#298dd4" d="M 254.242188 217.449219 L 120.75 217.449219 C 116.207031 217.449219 112.492188 213.730469 112.492188 209.191406 C 112.492188 204.648438 116.207031 200.933594 120.75 200.933594 L 254.242188 200.933594 C 258.78125 200.933594 262.5 204.648438 262.5 209.191406 C 262.5 213.730469 258.78125 217.449219 254.242188 217.449219 " fill-opacity="1" fill-rule="nonzero"/></g><path fill="#bd9b6b" d="M 251.820312 195.457031 L 123.171875 195.457031 C 120.667969 195.457031 118.621094 193.410156 118.621094 190.90625 C 118.621094 188.40625 120.667969 186.359375 123.171875 186.359375 L 251.820312 186.359375 C 254.320312 186.359375 256.371094 188.40625 256.371094 190.90625 C 256.371094 193.410156 254.320312 195.457031 251.820312 195.457031 " fill-opacity="1" fill-rule="nonzero"/></svg>